<svg width="91" height="18" viewBox="0 0 91 18" fill="none" xmlns="http://www.w3.org/2000/svg">
<path fill-rule="evenodd" clip-rule="evenodd" d="M4.76348 3.56903C3.67856 4.67341 2.78309 6.63247 2.3023 8.15954C2.15087 8.64048 1.63825 8.90761 1.15731 8.75618C0.67637 8.60476 0.409244 8.09213 0.560666 7.61119C1.07062 5.99151 2.07281 3.70246 3.46094 2.28943C4.16039 1.57745 5.06191 0.983107 6.13785 0.954565C7.24345 0.925237 8.2761 1.49728 9.20726 2.56527C9.77326 3.21444 10.1574 3.85695 10.2898 4.50982C10.4312 5.20711 10.2672 5.82708 9.91025 6.34106C9.57787 6.81969 9.09728 7.18116 8.62721 7.46822C8.15067 7.75924 7.60654 8.01942 7.09201 8.26074C7.05247 8.27929 7.01312 8.29773 6.97399 8.31607C5.9312 8.80477 5.03864 9.22307 4.46901 9.76281C4.19536 10.0221 4.04505 10.268 3.98295 10.516C3.92219 10.7586 3.92269 11.0951 4.11144 11.5805C4.48961 12.553 5.43631 13.4833 6.76083 14.2168C8.06952 14.9416 9.63775 15.4113 11.0809 15.5308C12.5547 15.6528 13.7317 15.3988 14.406 14.8784C14.7242 14.6327 14.9429 14.3208 15.0502 13.9156C15.1605 13.4987 15.1671 12.9258 14.955 12.153C14.5583 10.7076 13.6814 10.0182 12.6711 9.73378C11.6026 9.43296 10.3309 9.57882 9.28294 9.97219C8.76449 10.1668 8.34141 10.4073 8.05206 10.6434C7.90822 10.7608 7.81134 10.8657 7.7516 10.9495C7.72654 10.9847 7.71054 11.0125 7.70042 11.0329C7.71552 11.0465 7.7379 11.0647 7.77043 11.0876C7.98245 11.2373 8.45055 11.4328 9.33798 11.5634C9.83682 11.6369 10.1817 12.1008 10.1083 12.5996C10.0348 13.0985 9.57091 13.4433 9.07207 13.3699C8.07328 13.2229 7.27318 12.9716 6.71758 12.5794C6.11424 12.1536 5.75259 11.5104 5.88569 10.7569C5.99941 10.1131 6.44528 9.59785 6.89768 9.2287C7.37326 8.84063 7.98083 8.51064 8.64127 8.26273C9.9511 7.77107 11.6302 7.54384 13.1659 7.97619C14.7599 8.42495 16.1409 9.57506 16.7158 11.6697C16.9895 12.667 17.0283 13.5777 16.8153 14.3827C16.5993 15.1992 16.1392 15.8472 15.5215 16.3239C14.3239 17.2482 12.6 17.4887 10.9302 17.3504C9.22958 17.2096 7.41117 16.6642 5.87622 15.8141C4.35711 14.9728 3.00318 13.7686 2.40966 12.2422C2.11256 11.4782 2.04162 10.7517 2.21173 10.0725C2.38049 9.39854 2.76336 8.86357 3.21313 8.4374C4.00703 7.68514 5.1566 7.14892 6.10001 6.70886C6.17358 6.67455 6.24589 6.64082 6.31668 6.60762C6.83815 6.36304 7.29607 6.14166 7.67557 5.90991C8.06154 5.6742 8.29097 5.47168 8.4105 5.29957C8.50548 5.16279 8.53528 5.04523 8.50029 4.87269C8.45629 4.65572 8.29384 4.29607 7.831 3.76521C7.11599 2.94514 6.56345 2.76983 6.18627 2.77984C5.77942 2.79063 5.30056 3.02231 4.76348 3.56903ZM7.67193 11.0015C7.67247 11.0015 7.67488 11.0044 7.67756 11.01C7.67274 11.0042 7.6714 11.0015 7.67193 11.0015Z" fill="white"/>
<path d="M24.0144 13.9304C23.8525 13.9304 23.7162 13.875 23.6054 13.7642C23.4946 13.6534 23.4392 13.5171 23.4392 13.3552V7.87198C23.4392 7.71008 23.4946 7.57375 23.6054 7.46297C23.7162 7.34368 23.8525 7.28404 24.0144 7.28404C24.1763 7.28404 24.3126 7.34368 24.4234 7.46297C24.5427 7.57375 24.6023 7.71008 24.6023 7.87198V8.39602C24.9261 8.03814 25.2755 7.75269 25.6504 7.53966C26.0253 7.32664 26.4684 7.22013 26.9797 7.22013C27.4483 7.22013 27.8531 7.3309 28.1939 7.55244C28.5433 7.77399 28.8074 8.07648 28.9864 8.45992C29.1738 8.84337 29.2675 9.26515 29.2675 9.72528V13.3552C29.2675 13.5171 29.2079 13.6534 29.0886 13.7642C28.9778 13.875 28.8415 13.9304 28.6796 13.9304C28.5177 13.9304 28.3814 13.875 28.2706 13.7642C28.1598 13.6534 28.1044 13.5171 28.1044 13.3552V9.8531C28.1044 8.81354 27.6358 8.29377 26.6985 8.29377C26.2724 8.29377 25.889 8.40454 25.5482 8.62608C25.2158 8.84763 24.9006 9.14586 24.6023 9.52078V13.3552C24.6023 13.5171 24.5427 13.6534 24.4234 13.7642C24.3126 13.875 24.1763 13.9304 24.0144 13.9304ZM32.7656 13.9304C32.6037 13.9304 32.4673 13.875 32.3565 13.7642C32.2458 13.6534 32.1904 13.5171 32.1904 13.3552V8.34489H31.4363C31.3 8.34489 31.1807 8.29803 31.0784 8.2043C30.9847 8.10204 30.9378 7.98275 30.9378 7.84642C30.9378 7.70156 30.9847 7.58227 31.0784 7.48854C31.1807 7.39481 31.3 7.34794 31.4363 7.34794H32.1904V6.60662C32.1904 6.09537 32.2799 5.67784 32.4588 5.35404C32.6463 5.02173 32.8848 4.78314 33.1746 4.63829C33.4728 4.48491 33.7838 4.40822 34.1076 4.40822C34.5081 4.40822 34.8787 4.49343 35.2196 4.66385C35.3048 4.70645 35.373 4.77036 35.4241 4.85557C35.4837 4.93226 35.5136 5.01747 35.5136 5.1112C35.5136 5.23901 35.4667 5.35404 35.373 5.4563C35.2792 5.55003 35.1685 5.59689 35.0406 5.59689C34.9469 5.59689 34.8489 5.58411 34.7467 5.55855C34.5422 5.53298 34.4271 5.5202 34.4016 5.5202C34.0522 5.5202 33.7881 5.60115 33.6091 5.76305C33.4387 5.92495 33.3535 6.21892 33.3535 6.64497V7.34794H34.9512C35.096 7.34794 35.2153 7.39481 35.309 7.48854C35.4028 7.58227 35.4496 7.70156 35.4496 7.84642C35.4496 7.98275 35.4028 8.10204 35.309 8.2043C35.2153 8.29803 35.096 8.34489 34.9512 8.34489H33.3535V13.3552C33.3535 13.5171 33.2938 13.6534 33.1746 13.7642C33.0638 13.875 32.9274 13.9304 32.7656 13.9304ZM39.3489 13.9943C38.1048 13.9943 37.4828 13.4319 37.4828 12.3071V8.34489H36.5753C36.5071 8.34489 36.4475 8.32359 36.3964 8.28098C36.3538 8.22986 36.3325 8.17021 36.3325 8.10204C36.3325 8.01684 36.3708 7.94441 36.4475 7.88476L38.1858 6.18484C38.2625 6.10815 38.3349 6.0698 38.403 6.0698C38.4712 6.0698 38.5266 6.09537 38.5692 6.14649C38.6203 6.19762 38.6459 6.25726 38.6459 6.32543V7.34794H40.0902C40.235 7.34794 40.3543 7.39481 40.4481 7.48854C40.5418 7.58227 40.5887 7.70156 40.5887 7.84642C40.5887 7.98275 40.5418 8.10204 40.4481 8.2043C40.3543 8.29803 40.235 8.34489 40.0902 8.34489H38.6459V12.2049C38.6459 12.5372 38.7226 12.7502 38.876 12.8439C39.0379 12.9292 39.2381 12.9718 39.4767 12.9718C39.6471 12.9718 39.8175 12.9462 39.9879 12.8951C40.022 12.8865 40.0561 12.878 40.0902 12.8695C40.1328 12.861 40.1839 12.8567 40.2436 12.8567C40.3629 12.8567 40.4694 12.9036 40.5631 12.9973C40.6568 13.0825 40.7037 13.189 40.7037 13.3169C40.7037 13.5128 40.6057 13.662 40.4097 13.7642C40.0774 13.9176 39.7238 13.9943 39.3489 13.9943ZM43.194 13.9304C43.0321 13.9304 42.8957 13.875 42.785 13.7642C42.6742 13.6534 42.6188 13.5171 42.6188 13.3552V5.06007C42.6188 4.89817 42.6742 4.76184 42.785 4.65107C42.8957 4.53177 43.0321 4.47213 43.194 4.47213C43.3644 4.47213 43.505 4.52751 43.6158 4.63829C43.7265 4.74906 43.7819 4.88965 43.7819 5.06007V13.3552C43.7819 13.5171 43.7223 13.6534 43.603 13.7642C43.4922 13.875 43.3559 13.9304 43.194 13.9304ZM48.1023 13.9943C47.7274 13.9943 47.378 13.9176 47.0543 13.7642C46.739 13.6108 46.4876 13.3893 46.3002 13.0996C46.1127 12.8013 46.019 12.4605 46.019 12.0771C46.019 11.4465 46.2661 10.9438 46.7603 10.5689C47.263 10.1939 47.9958 10.0065 48.9587 10.0065H50.5052V9.90422C50.5052 9.34184 50.3646 8.9371 50.0834 8.68999C49.8108 8.44288 49.3805 8.31933 48.7925 8.31933C48.4687 8.31933 48.179 8.34489 47.9234 8.39602C47.6763 8.44714 47.3994 8.52383 47.0926 8.62608C47.0244 8.64312 46.969 8.65164 46.9264 8.65164C46.7986 8.65164 46.6879 8.60478 46.5941 8.51105C46.5004 8.41732 46.4535 8.30229 46.4535 8.16595C46.4535 7.93589 46.5643 7.77399 46.7858 7.68026C47.5101 7.37351 48.2472 7.22013 48.997 7.22013C49.585 7.22013 50.0792 7.33942 50.4797 7.57801C50.8887 7.81659 51.1869 8.12761 51.3744 8.51105C51.5703 8.88597 51.6683 9.29498 51.6683 9.73806V13.3552C51.6683 13.5171 51.6087 13.6534 51.4894 13.7642C51.3786 13.875 51.2423 13.9304 51.0804 13.9304C50.9185 13.9304 50.7822 13.875 50.6714 13.7642C50.5606 13.6534 50.5052 13.5171 50.5052 13.3552V13.0229C49.8747 13.6705 49.0737 13.9943 48.1023 13.9943ZM48.5369 12.9718C48.9118 12.9718 49.274 12.8823 49.6233 12.7033C49.9727 12.5159 50.2666 12.2858 50.5052 12.0132V10.9395H49.1121C47.8254 10.9395 47.1821 11.2761 47.1821 11.9492C47.1821 12.256 47.2843 12.5031 47.4888 12.6906C47.7018 12.878 48.0512 12.9718 48.5369 12.9718ZM54.832 13.9304C54.6701 13.9304 54.5338 13.875 54.423 13.7642C54.3123 13.6534 54.2569 13.5171 54.2569 13.3552V7.87198C54.2569 7.71008 54.3123 7.57375 54.423 7.46297C54.5338 7.34368 54.6701 7.28404 54.832 7.28404C54.9939 7.28404 55.1303 7.34368 55.241 7.46297C55.3603 7.57375 55.42 7.71008 55.42 7.87198V8.39602C55.7438 8.03814 56.0931 7.75269 56.4681 7.53966C56.843 7.32664 57.2861 7.22013 57.7973 7.22013C58.266 7.22013 58.6707 7.3309 59.0116 7.55244C59.3609 7.77399 59.6251 8.07648 59.804 8.45992C59.9915 8.84337 60.0852 9.26515 60.0852 9.72528V13.3552C60.0852 13.5171 60.0255 13.6534 59.9062 13.7642C59.7955 13.875 59.6591 13.9304 59.4972 13.9304C59.3353 13.9304 59.199 13.875 59.0882 13.7642C58.9775 13.6534 58.9221 13.5171 58.9221 13.3552V9.8531C58.9221 8.81354 58.4534 8.29377 57.5161 8.29377C57.0901 8.29377 56.7066 8.40454 56.3658 8.62608C56.0335 8.84763 55.7182 9.14586 55.42 9.52078V13.3552C55.42 13.5171 55.3603 13.6534 55.241 13.7642C55.1303 13.875 54.9939 13.9304 54.832 13.9304ZM65.3815 13.9943C64.8532 13.9943 64.3504 13.8622 63.8733 13.598C63.4046 13.3254 63.0212 12.9334 62.7229 12.4222C62.4332 11.9024 62.2884 11.2974 62.2884 10.6072C62.2884 9.917 62.4332 9.31628 62.7229 8.80502C63.0212 8.28524 63.4046 7.89328 63.8733 7.62913C64.3504 7.35646 64.8532 7.22013 65.3815 7.22013C66.2165 7.22013 66.9451 7.54392 67.5671 8.19151V5.06007C67.5671 4.88965 67.6225 4.74906 67.7333 4.63829C67.8526 4.52751 67.9931 4.47213 68.155 4.47213C68.3169 4.47213 68.4533 4.53177 68.564 4.65107C68.6748 4.76184 68.7302 4.89817 68.7302 5.06007V13.3552C68.7302 13.5171 68.6748 13.6534 68.564 13.7642C68.4533 13.875 68.3169 13.9304 68.155 13.9304C67.9931 13.9304 67.8526 13.875 67.7333 13.7642C67.6225 13.6534 67.5671 13.5171 67.5671 13.3552V13.0229C66.9451 13.6705 66.2165 13.9943 65.3815 13.9943ZM65.5476 12.9079C65.9396 12.9079 66.306 12.8226 66.6468 12.6522C66.9962 12.4733 67.303 12.239 67.5671 11.9492V9.26515C67.303 8.97544 66.9962 8.74538 66.6468 8.57496C66.306 8.39602 65.9396 8.30655 65.5476 8.30655C64.9171 8.30655 64.4101 8.50679 64.0267 8.90727C63.6432 9.30776 63.4515 9.8744 63.4515 10.6072C63.4515 11.34 63.6432 11.9066 64.0267 12.3071C64.4101 12.7076 64.9171 12.9079 65.5476 12.9079ZM71.9365 6.01868C71.7576 6.01868 71.6042 5.95477 71.4764 5.82696C71.3486 5.69914 71.2847 5.54577 71.2847 5.36683V5.3157C71.2847 5.13676 71.3486 4.98338 71.4764 4.85557C71.6042 4.72776 71.7576 4.66385 71.9365 4.66385H72.0132C72.1922 4.66385 72.3455 4.72776 72.4734 4.85557C72.6012 4.98338 72.6651 5.13676 72.6651 5.3157V5.36683C72.6651 5.54577 72.6012 5.69914 72.4734 5.82696C72.3455 5.95477 72.1922 6.01868 72.0132 6.01868H71.9365ZM71.9621 13.9304C71.8002 13.9304 71.6639 13.875 71.5531 13.7642C71.4423 13.6534 71.3869 13.5171 71.3869 13.3552V7.87198C71.3869 7.71008 71.4423 7.57375 71.5531 7.46297C71.6639 7.34368 71.8002 7.28404 71.9621 7.28404C72.1325 7.28404 72.2731 7.33942 72.3839 7.45019C72.4947 7.56097 72.55 7.70156 72.55 7.87198V13.3552C72.55 13.5171 72.4904 13.6534 72.3711 13.7642C72.2603 13.875 72.124 13.9304 71.9621 13.9304ZM75.784 13.9304C75.6221 13.9304 75.4858 13.875 75.375 13.7642C75.2643 13.6534 75.2089 13.5171 75.2089 13.3552V7.87198C75.2089 7.71008 75.2643 7.57375 75.375 7.46297C75.4858 7.34368 75.6221 7.28404 75.784 7.28404C75.9459 7.28404 76.0823 7.34368 76.193 7.46297C76.3123 7.57375 76.372 7.71008 76.372 7.87198V8.39602C76.6958 8.03814 77.0451 7.75269 77.4201 7.53966C77.795 7.32664 78.2381 7.22013 78.7493 7.22013C79.218 7.22013 79.6227 7.3309 79.9636 7.55244C80.3129 7.77399 80.5771 8.07648 80.756 8.45992C80.9435 8.84337 81.0372 9.26515 81.0372 9.72528V13.3552C81.0372 13.5171 80.9775 13.6534 80.8583 13.7642C80.7475 13.875 80.6111 13.9304 80.4492 13.9304C80.2874 13.9304 80.151 13.875 80.0402 13.7642C79.9295 13.6534 79.8741 13.5171 79.8741 13.3552V9.8531C79.8741 8.81354 79.4054 8.29377 78.4681 8.29377C78.0421 8.29377 77.6586 8.40454 77.3178 8.62608C76.9855 8.84763 76.6702 9.14586 76.372 9.52078V13.3552C76.372 13.5171 76.3123 13.6534 76.193 13.7642C76.0823 13.875 75.9459 13.9304 75.784 13.9304ZM86.6786 16.934C86.1844 16.934 85.6859 16.8701 85.1832 16.7423C84.6804 16.6145 84.2672 16.4568 83.9434 16.2694C83.79 16.1756 83.7133 16.0265 83.7133 15.822C83.7133 15.6857 83.7602 15.5621 83.8539 15.4513C83.9561 15.3491 84.0797 15.298 84.2246 15.298C84.2927 15.298 84.3694 15.315 84.4546 15.3491C85.1022 15.6729 85.8052 15.8348 86.5635 15.8348C87.8673 15.8348 88.5191 15.1403 88.5191 13.7514V12.8951C87.9141 13.5427 87.1856 13.8665 86.3335 13.8665C85.8307 13.8665 85.3408 13.7429 84.8636 13.4958C84.395 13.2402 84.0073 12.8652 83.7005 12.371C83.3938 11.8683 83.2404 11.259 83.2404 10.5433C83.2404 9.82753 83.3938 9.22255 83.7005 8.72833C84.0073 8.2256 84.395 7.85068 84.8636 7.60357C85.3408 7.34794 85.8307 7.22013 86.3335 7.22013C87.1856 7.22013 87.9141 7.54392 88.5191 8.19151V7.87198C88.5191 7.71008 88.5745 7.57375 88.6853 7.46297C88.796 7.34368 88.9324 7.28404 89.0943 7.28404C89.2562 7.28404 89.3925 7.34368 89.5033 7.46297C89.6226 7.57375 89.6822 7.71008 89.6822 7.87198V13.5853C89.6822 14.6589 89.4223 15.4854 88.9025 16.0649C88.3828 16.6443 87.6414 16.934 86.6786 16.934ZM86.5763 12.8056C86.9768 12.8056 87.3304 12.7204 87.6372 12.55C87.9439 12.3796 88.2379 12.1495 88.5191 11.8598V9.22681C88.2379 8.9371 87.9439 8.70703 87.6372 8.53661C87.3304 8.36619 86.9768 8.28098 86.5763 8.28098C85.9373 8.28098 85.4132 8.47697 85.0042 8.86893C84.6037 9.25237 84.4035 9.81049 84.4035 10.5433C84.4035 11.2761 84.6037 11.8385 85.0042 12.2304C85.4132 12.6139 85.9373 12.8056 86.5763 12.8056Z" fill="white"/>
<path d="M23.6054 13.7642L23.9282 13.4414L23.9282 13.4414L23.6054 13.7642ZM23.6054 7.46297L23.9282 7.78575L23.9341 7.77978L23.9399 7.77359L23.6054 7.46297ZM24.4234 7.46297L24.0889 7.77359L24.1004 7.78597L24.1128 7.79748L24.4234 7.46297ZM24.6023 8.39602H24.1459V9.58093L24.9408 8.70227L24.6023 8.39602ZM25.6504 7.53966L25.8759 7.93655L25.6504 7.53966ZM28.1939 7.55244L27.9451 7.9352L27.9494 7.93794L28.1939 7.55244ZM28.9864 8.45992L28.5726 8.65299L28.5763 8.66041L28.9864 8.45992ZM29.0886 13.7642L28.778 13.4297L28.7718 13.4354L28.7658 13.4414L29.0886 13.7642ZM28.2706 13.7642L27.9478 14.087L27.9478 14.087L28.2706 13.7642ZM25.5482 8.62608L25.2994 8.24332L25.2949 8.24627L25.5482 8.62608ZM24.6023 9.52078L24.2451 9.23661L24.1459 9.36137V9.52078H24.6023ZM24.4234 13.7642L24.1128 13.4297L24.1066 13.4354L24.1006 13.4414L24.4234 13.7642ZM24.0144 13.4739C23.969 13.4739 23.9502 13.4634 23.9282 13.4414L23.2826 14.087C23.4821 14.2865 23.736 14.3868 24.0144 14.3868V13.4739ZM23.9282 13.4414C23.9061 13.4194 23.8957 13.4006 23.8957 13.3552H22.9827C22.9827 13.6336 23.0831 13.8875 23.2826 14.087L23.9282 13.4414ZM23.8957 13.3552V7.87198H22.9827V13.3552H23.8957ZM23.8957 7.87198C23.8957 7.82662 23.9061 7.80777 23.9282 7.78575L23.2826 7.1402C23.0831 7.33972 22.9827 7.59354 22.9827 7.87198H23.8957ZM23.9399 7.77359C23.9648 7.74672 23.9802 7.74051 24.0144 7.74051V6.82756C23.7248 6.82756 23.4675 6.94064 23.2709 7.15236L23.9399 7.77359ZM24.0144 7.74051C24.0486 7.74051 24.0639 7.74672 24.0889 7.77359L24.7579 7.15236C24.5613 6.94064 24.304 6.82756 24.0144 6.82756V7.74051ZM24.1128 7.79748C24.1396 7.82242 24.1459 7.83781 24.1459 7.87198H25.0588C25.0588 7.58235 24.9457 7.32507 24.734 7.12847L24.1128 7.79748ZM24.1459 7.87198V8.39602H25.0588V7.87198H24.1459ZM24.9408 8.70227C25.2359 8.37618 25.5479 8.1229 25.8759 7.93655L25.4249 7.14278C25.003 7.38248 24.6164 7.7001 24.2638 8.08976L24.9408 8.70227ZM25.8759 7.93655C26.1703 7.76927 26.5328 7.67661 26.9797 7.67661V6.76365C26.4041 6.76365 25.8803 6.88401 25.4249 7.14278L25.8759 7.93655ZM26.9797 7.67661C27.3738 7.67661 27.6891 7.76878 27.9451 7.93518L28.4427 7.16971C28.017 6.89302 27.5228 6.76365 26.9797 6.76365V7.67661ZM27.9494 7.93794C28.2234 8.11169 28.4297 8.3466 28.5727 8.65296L29.4 8.26689C29.1851 7.80636 28.8631 7.43629 28.4384 7.16694L27.9494 7.93794ZM28.5763 8.66041C28.7309 8.97664 28.8111 9.32911 28.8111 9.72528H29.724C29.724 9.20119 29.6168 8.71009 29.3964 8.25943L28.5763 8.66041ZM28.8111 9.72528V13.3552H29.724V9.72528H28.8111ZM28.8111 13.3552C28.8111 13.3894 28.8049 13.4048 28.778 13.4297L29.3992 14.0987C29.6109 13.9021 29.724 13.6448 29.724 13.3552H28.8111ZM28.7658 13.4414C28.7438 13.4634 28.725 13.4739 28.6796 13.4739V14.3868C28.958 14.3868 29.2119 14.2865 29.4114 14.087L28.7658 13.4414ZM28.6796 13.4739C28.6342 13.4739 28.6154 13.4634 28.5934 13.4414L27.9478 14.087C28.1473 14.2865 28.4012 14.3868 28.6796 14.3868V13.4739ZM28.5934 13.4414C28.5714 13.4194 28.5609 13.4006 28.5609 13.3552H27.648C27.648 13.6336 27.7483 13.8875 27.9478 14.087L28.5934 13.4414ZM28.5609 13.3552V9.8531H27.648V13.3552H28.5609ZM28.5609 9.8531C28.5609 9.27396 28.4314 8.75437 28.092 8.37792C27.7444 7.99249 27.2504 7.83729 26.6985 7.83729V8.75024C27.0839 8.75024 27.2928 8.85493 27.4139 8.98927C27.5432 9.1326 27.648 9.39268 27.648 9.8531H28.5609ZM26.6985 7.83729C26.1886 7.83729 25.7179 7.9713 25.2994 8.24335L25.7969 9.00881C26.0601 8.83778 26.3563 8.75024 26.6985 8.75024V7.83729ZM25.2949 8.24627C24.9162 8.49874 24.5671 8.83176 24.2451 9.23661L24.9596 9.80495C25.234 9.45995 25.5154 9.19652 25.8014 9.00589L25.2949 8.24627ZM24.1459 9.52078V13.3552H25.0588V9.52078H24.1459ZM24.1459 13.3552C24.1459 13.3894 24.1396 13.4048 24.1128 13.4297L24.734 14.0987C24.9457 13.9021 25.0588 13.6448 25.0588 13.3552H24.1459ZM24.1006 13.4414C24.0786 13.4634 24.0597 13.4739 24.0144 13.4739V14.3868C24.2928 14.3868 24.5466 14.2865 24.7462 14.087L24.1006 13.4414ZM32.3565 13.7642L32.6793 13.4414L32.6793 13.4414L32.3565 13.7642ZM32.1904 8.34489H32.6469V7.88841H32.1904V8.34489ZM31.0784 8.2043L30.7419 8.51275L30.7553 8.52738L30.77 8.54079L31.0784 8.2043ZM31.0784 7.48854L30.77 7.15204L30.7626 7.15875L30.7556 7.16576L31.0784 7.48854ZM32.1904 7.34794V7.80442H32.6469V7.34794H32.1904ZM32.4588 5.35404L32.0612 5.12976L32.0593 5.13325L32.4588 5.35404ZM33.1746 4.63829L33.3787 5.0466L33.3833 5.04423L33.1746 4.63829ZM35.2196 4.66385L35.0154 5.07214L35.0154 5.07214L35.2196 4.66385ZM35.4241 4.85557L35.0327 5.09043L35.0468 5.11406L35.0638 5.13582L35.4241 4.85557ZM35.373 5.4563L35.6957 5.77907L35.7027 5.77206L35.7095 5.76475L35.373 5.4563ZM34.7467 5.55855L34.8574 5.1157L34.8306 5.10901L34.8033 5.10559L34.7467 5.55855ZM33.6091 5.76305L33.3028 5.42445L33.2947 5.4321L33.6091 5.76305ZM33.3535 7.34794H32.897V7.80442H33.3535V7.34794ZM35.309 7.48854L34.9863 7.81132L34.9863 7.81132L35.309 7.48854ZM35.309 8.2043L35.6318 8.52708L35.6388 8.52006L35.6455 8.51275L35.309 8.2043ZM33.3535 8.34489V7.88841H32.897V8.34489H33.3535ZM33.1746 13.7642L32.8639 13.4297L32.8578 13.4354L32.8518 13.4414L33.1746 13.7642ZM32.7656 13.4739C32.7202 13.4739 32.7013 13.4634 32.6793 13.4414L32.0338 14.087C32.2333 14.2865 32.4871 14.3868 32.7656 14.3868V13.4739ZM32.6793 13.4414C32.6573 13.4194 32.6469 13.4006 32.6469 13.3552H31.7339C31.7339 13.6336 31.8342 13.8875 32.0338 14.087L32.6793 13.4414ZM32.6469 13.3552V8.34489H31.7339V13.3552H32.6469ZM32.1904 7.88841H31.4363V8.80137H32.1904V7.88841ZM31.4363 7.88841C31.4163 7.88841 31.4065 7.88585 31.3869 7.8678L30.77 8.54079C30.9548 8.7102 31.1836 8.80137 31.4363 8.80137V7.88841ZM31.4149 7.89584C31.3969 7.87615 31.3943 7.86636 31.3943 7.84642H30.4813C30.4813 8.09914 30.5725 8.32793 30.7419 8.51275L31.4149 7.89584ZM31.3943 7.84642C31.3943 7.82373 31.3978 7.81523 31.3978 7.81522C31.3979 7.81497 31.398 7.81492 31.3979 7.81501C31.3979 7.81509 31.3978 7.81513 31.3979 7.81508C31.3979 7.81502 31.3981 7.81472 31.3986 7.81415C31.399 7.81358 31.3999 7.81263 31.4012 7.81132L30.7556 7.16576C30.5679 7.35346 30.4813 7.59286 30.4813 7.84642H31.3943ZM31.3869 7.82503C31.4065 7.80699 31.4163 7.80442 31.4363 7.80442V6.89146C31.1836 6.89146 30.9548 6.98263 30.77 7.15204L31.3869 7.82503ZM31.4363 7.80442H32.1904V6.89146H31.4363V7.80442ZM32.6469 7.34794V6.60662H31.7339V7.34794H32.6469ZM32.6469 6.60662C32.6469 6.14454 32.7283 5.81012 32.8583 5.57484L32.0593 5.13325C31.8314 5.54556 31.7339 6.04619 31.7339 6.60662H32.6469ZM32.8564 5.57832C33.0073 5.31084 33.184 5.14392 33.3787 5.04657L32.9704 4.23C32.5857 4.42236 32.2852 4.73262 32.0612 5.12977L32.8564 5.57832ZM33.3833 5.04423C33.6194 4.92284 33.8591 4.8647 34.1076 4.8647V3.95174C33.7085 3.95174 33.3262 4.04698 32.9658 4.23234L33.3833 5.04423ZM34.1076 4.8647C34.4409 4.8647 34.7412 4.93503 35.0154 5.07214L35.4237 4.25556C35.0163 4.05183 34.5752 3.95174 34.1076 3.95174V4.8647ZM35.0154 5.07214C35.0196 5.07419 35.0242 5.07629 35.0327 5.09043L35.8155 4.62071C35.7217 4.46443 35.59 4.33871 35.4237 4.25556L35.0154 5.07214ZM35.0638 5.13582C35.0655 5.1381 35.063 5.1353 35.0603 5.12779C35.0591 5.12433 35.0582 5.12081 35.0577 5.11754C35.0572 5.1143 35.0571 5.11207 35.0571 5.1112H35.97C35.97 4.91203 35.9039 4.72898 35.7844 4.57532L35.0638 5.13582ZM35.0571 5.1112C35.0571 5.1178 35.0562 5.11987 35.0557 5.12111C35.0549 5.12295 35.051 5.13201 35.0365 5.14784L35.7095 5.76475C35.8732 5.58612 35.97 5.36339 35.97 5.1112H35.0571ZM35.0502 5.13352C35.0451 5.13857 35.0419 5.1409 35.0409 5.14165C35.0398 5.14234 35.0402 5.14199 35.0417 5.14134C35.0433 5.14068 35.0447 5.14032 35.0453 5.14018C35.0459 5.14007 35.0446 5.14041 35.0406 5.14041V6.05337C35.2944 6.05337 35.5199 5.95487 35.6957 5.77907L35.0502 5.13352ZM35.0406 5.14041C34.9885 5.14041 34.9278 5.13331 34.8574 5.1157L34.636 6.0014C34.77 6.03491 34.9053 6.05337 35.0406 6.05337V5.14041ZM34.8033 5.10559C34.7003 5.09272 34.618 5.08283 34.5574 5.0761C34.5114 5.07099 34.4459 5.06372 34.4016 5.06372V5.97668C34.3843 5.97668 34.3765 5.97541 34.3962 5.9772C34.4094 5.97841 34.4292 5.98043 34.4566 5.98347C34.5111 5.98952 34.5885 5.99881 34.69 6.0115L34.8033 5.10559ZM34.4016 5.06372C33.9891 5.06372 33.5966 5.15877 33.3029 5.42455L33.9154 6.10154C33.9795 6.04353 34.1154 5.97668 34.4016 5.97668V5.06372ZM33.2947 5.4321C32.983 5.72825 32.897 6.18705 32.897 6.64497H33.81C33.81 6.25079 33.8944 6.12164 33.9235 6.094L33.2947 5.4321ZM32.897 6.64497V7.34794H33.81V6.64497H32.897ZM33.3535 7.80442H34.9512V6.89146H33.3535V7.80442ZM34.9512 7.80442C34.9739 7.80442 34.9824 7.80796 34.9824 7.80796C34.9826 7.80806 34.9827 7.80809 34.9826 7.80805C34.9825 7.808 34.9825 7.80797 34.9825 7.80801C34.9826 7.80804 34.9829 7.80825 34.9834 7.80871C34.984 7.80918 34.985 7.81001 34.9863 7.81132L35.6318 7.16576C35.4441 6.97806 35.2047 6.89146 34.9512 6.89146V7.80442ZM34.9863 7.81132C34.9876 7.81263 34.9884 7.81358 34.9889 7.81415C34.9893 7.81472 34.9895 7.81502 34.9896 7.81508C34.9896 7.81513 34.9896 7.81509 34.9895 7.815C34.9895 7.81492 34.9895 7.81497 34.9896 7.81522C34.9896 7.81523 34.9932 7.82373 34.9932 7.84642H35.9061C35.9061 7.59286 35.8195 7.35346 35.6318 7.16576L34.9863 7.81132ZM34.9932 7.84642C34.9932 7.86636 34.9906 7.87616 34.9726 7.89584L35.6455 8.51275C35.815 8.32793 35.9061 8.09914 35.9061 7.84642H34.9932ZM34.9863 7.88152C34.985 7.88283 34.984 7.88365 34.9834 7.88412C34.9829 7.88459 34.9826 7.88479 34.9825 7.88483C34.9825 7.88486 34.9825 7.88483 34.9826 7.88479C34.9827 7.88474 34.9826 7.88478 34.9824 7.88487C34.9824 7.88488 34.9739 7.88841 34.9512 7.88841V8.80137C35.2047 8.80137 35.4441 8.71478 35.6318 8.52708L34.9863 7.88152ZM34.9512 7.88841H33.3535V8.80137H34.9512V7.88841ZM32.897 8.34489V13.3552H33.81V8.34489H32.897ZM32.897 13.3552C32.897 13.3894 32.8908 13.4048 32.8639 13.4297L33.4852 14.0987C33.6969 13.9021 33.81 13.6448 33.81 13.3552H32.897ZM32.8518 13.4414C32.8298 13.4634 32.8109 13.4739 32.7656 13.4739V14.3868C33.044 14.3868 33.2978 14.2865 33.4973 14.087L32.8518 13.4414ZM37.4828 8.34489H37.9393V7.88841H37.4828V8.34489ZM36.3964 8.28098L36.0457 8.57321L36.0723 8.60509L36.1041 8.63166L36.3964 8.28098ZM36.4475 7.88476L36.7277 8.24508L36.7482 8.2292L36.7667 8.21112L36.4475 7.88476ZM38.1858 6.18484L38.5049 6.51121L38.5085 6.50761L38.1858 6.18484ZM38.5692 6.14649L38.2185 6.43872L38.2318 6.45463L38.2464 6.46927L38.5692 6.14649ZM38.6459 7.34794H38.1894V7.80442H38.6459V7.34794ZM40.4481 7.48854L40.1253 7.81132L40.1253 7.81132L40.4481 7.48854ZM40.4481 8.2043L40.7708 8.52708L40.7779 8.52006L40.7846 8.51275L40.4481 8.2043ZM38.6459 8.34489V7.88841H38.1894V8.34489H38.6459ZM38.876 12.8439L38.6379 13.2334L38.6504 13.2411L38.6634 13.2479L38.876 12.8439ZM39.9879 12.8951L39.8772 12.4522L39.8669 12.4548L39.8568 12.4578L39.9879 12.8951ZM40.0902 12.8695L40.0007 12.4219L39.99 12.424L39.9795 12.4267L40.0902 12.8695ZM40.5631 12.9973L40.2403 13.3201L40.248 13.3278L40.256 13.3351L40.5631 12.9973ZM40.4097 13.7642L40.601 14.1787L40.6111 14.174L40.6209 14.1689L40.4097 13.7642ZM39.3489 13.5378C38.7865 13.5378 38.4499 13.4097 38.2554 13.2339C38.0697 13.066 37.9393 12.7866 37.9393 12.3071H37.0263C37.0263 12.9524 37.2069 13.5166 37.6432 13.9111C38.0707 14.2977 38.6672 14.4507 39.3489 14.4507V13.5378ZM37.9393 12.3071V8.34489H37.0263V12.3071H37.9393ZM37.4828 7.88841H36.5753V8.80137H37.4828V7.88841ZM36.5753 7.88841C36.5895 7.88841 36.6099 7.89079 36.633 7.89903C36.6562 7.90733 36.6751 7.91902 36.6886 7.93031L36.1041 8.63166C36.2394 8.74442 36.4032 8.80137 36.5753 8.80137V7.88841ZM36.747 7.98875C36.7583 8.0023 36.77 8.02114 36.7783 8.04438C36.7866 8.06746 36.7889 8.08781 36.7889 8.10204H35.876C35.876 8.27417 35.9329 8.43791 36.0457 8.57321L36.747 7.98875ZM36.7889 8.10204C36.7889 8.13083 36.7817 8.16515 36.7646 8.1974C36.7485 8.22786 36.731 8.24251 36.7277 8.24508L36.1672 7.52444C35.997 7.65681 35.876 7.85499 35.876 8.10204H36.7889ZM36.7667 8.21112L38.5049 6.51119L37.8666 5.85848L36.1283 7.5584L36.7667 8.21112ZM38.5085 6.50761C38.5244 6.49171 38.5258 6.49427 38.5112 6.50199C38.4948 6.51066 38.4571 6.52628 38.403 6.52628V5.61332C38.1589 5.61332 37.9765 5.74856 37.863 5.86206L38.5085 6.50761ZM38.403 6.52628C38.3789 6.52628 38.3434 6.52143 38.3044 6.50344C38.2651 6.48531 38.2366 6.46043 38.2185 6.43872L38.9199 5.85426C38.7881 5.69618 38.6029 5.61332 38.403 5.61332V6.52628ZM38.2464 6.46927C38.2356 6.45845 38.2197 6.4387 38.2072 6.40939C38.1944 6.37954 38.1894 6.34999 38.1894 6.32543H39.1024C39.1024 6.12828 39.023 5.95468 38.892 5.82371L38.2464 6.46927ZM38.1894 6.32543V7.34794H39.1024V6.32543H38.1894ZM38.6459 7.80442H40.0902V6.89146H38.6459V7.80442ZM40.0902 7.80442C40.1129 7.80442 40.1214 7.80796 40.1214 7.80796C40.1216 7.80806 40.1217 7.80809 40.1216 7.80804C40.1215 7.808 40.1215 7.80797 40.1215 7.80801C40.1216 7.80804 40.1219 7.80825 40.1225 7.80871C40.123 7.80918 40.124 7.81001 40.1253 7.81132L40.7708 7.16576C40.5831 6.97806 40.3437 6.89146 40.0902 6.89146V7.80442ZM40.1253 7.81132C40.1266 7.81263 40.1274 7.81358 40.1279 7.81415C40.1284 7.81472 40.1286 7.81502 40.1286 7.81508C40.1286 7.81513 40.1286 7.81509 40.1286 7.81501C40.1285 7.81492 40.1285 7.81497 40.1286 7.81522C40.1287 7.81523 40.1322 7.82373 40.1322 7.84642H41.0451C41.0451 7.59286 40.9586 7.35346 40.7708 7.16576L40.1253 7.81132ZM40.1322 7.84642C40.1322 7.86636 40.1296 7.87615 40.1116 7.89584L40.7846 8.51275C40.954 8.32794 41.0451 8.09914 41.0451 7.84642H40.1322ZM40.1253 7.88152C40.124 7.88283 40.123 7.88365 40.1225 7.88412C40.1219 7.88459 40.1216 7.88479 40.1215 7.88483C40.1215 7.88486 40.1215 7.88483 40.1216 7.88479C40.1217 7.88474 40.1216 7.88478 40.1214 7.88487C40.1214 7.88488 40.1129 7.88841 40.0902 7.88841V8.80137C40.3437 8.80137 40.5831 8.71478 40.7708 8.52708L40.1253 7.88152ZM40.0902 7.88841H38.6459V8.80137H40.0902V7.88841ZM38.1894 8.34489V12.2049H39.1024V8.34489H38.1894ZM38.1894 12.2049C38.1894 12.5642 38.2652 13.0057 38.6379 13.2334L39.114 12.4544C39.147 12.4746 39.1454 12.4939 39.1329 12.4593C39.1187 12.4197 39.1024 12.3407 39.1024 12.2049H38.1894ZM38.6634 13.2479C38.9077 13.3765 39.1858 13.4282 39.4767 13.4282V12.5153C39.2904 12.5153 39.168 12.4818 39.0886 12.44L38.6634 13.2479ZM39.4767 13.4282C39.6935 13.4282 39.908 13.3956 40.1191 13.3323L39.8568 12.4578C39.727 12.4968 39.6008 12.5153 39.4767 12.5153V13.4282ZM40.0987 13.3379C40.1327 13.3294 40.1668 13.3209 40.2009 13.3124L39.9795 12.4267C39.9454 12.4352 39.9113 12.4437 39.8772 12.4522L40.0987 13.3379ZM40.1797 13.3171C40.1842 13.3162 40.2037 13.3132 40.2436 13.3132V12.4002C40.1641 12.4002 40.0813 12.4058 40.0007 12.4219L40.1797 13.3171ZM40.2436 13.3132C40.2433 13.3132 40.2412 13.3132 40.2379 13.3125C40.2345 13.3118 40.2314 13.3107 40.2291 13.3097C40.2238 13.3074 40.228 13.3077 40.2403 13.3201L40.8859 12.6745C40.717 12.5056 40.4979 12.4002 40.2436 12.4002V13.3132ZM40.256 13.3351C40.2584 13.3372 40.2581 13.3373 40.2565 13.3352C40.2548 13.3329 40.2527 13.3294 40.2507 13.325C40.2488 13.3205 40.2477 13.3168 40.2473 13.3145C40.2469 13.3124 40.2472 13.3129 40.2472 13.3169H41.1602C41.1602 13.0618 41.06 12.8322 40.8702 12.6596L40.256 13.3351ZM40.2472 13.3169C40.2472 13.3276 40.2459 13.3314 40.2462 13.3304C40.2466 13.3291 40.2476 13.3267 40.2487 13.325C40.2515 13.3207 40.2439 13.3359 40.1986 13.3595L40.6209 14.1689C40.7716 14.0903 40.9109 13.9797 41.0117 13.8264C41.1144 13.6701 41.1602 13.4948 41.1602 13.3169H40.2472ZM40.2184 13.3497C39.9476 13.4748 39.6594 13.5378 39.3489 13.5378V14.4507C39.7882 14.4507 40.2072 14.3604 40.601 14.1787L40.2184 13.3497ZM42.785 13.7642L43.1077 13.4414L43.1077 13.4414L42.785 13.7642ZM42.785 4.65107L43.1077 4.97385L43.1137 4.96787L43.1195 4.96168L42.785 4.65107ZM43.6158 4.63829L43.9385 4.31551L43.9385 4.31551L43.6158 4.63829ZM43.603 13.7642L43.2924 13.4297L43.2862 13.4354L43.2802 13.4414L43.603 13.7642ZM43.194 13.4739C43.1486 13.4739 43.1298 13.4634 43.1077 13.4414L42.4622 14.087C42.6617 14.2865 42.9155 14.3868 43.194 14.3868V13.4739ZM43.1077 13.4414C43.0857 13.4194 43.0753 13.4006 43.0753 13.3552H42.1623C42.1623 13.6336 42.2627 13.8875 42.4622 14.087L43.1077 13.4414ZM43.0753 13.3552V5.06007H42.1623V13.3552H43.0753ZM43.0753 5.06007C43.0753 5.01471 43.0857 4.99586 43.1077 4.97385L42.4622 4.32829C42.2627 4.52782 42.1623 4.78164 42.1623 5.06007H43.0753ZM43.1195 4.96168C43.1444 4.93482 43.1598 4.92861 43.194 4.92861V4.01565C42.9043 4.01565 42.6471 4.12873 42.4505 4.34046L43.1195 4.96168ZM43.194 4.92861C43.255 4.92861 43.2758 4.94385 43.293 4.96107L43.9385 4.31551C43.7342 4.11118 43.4737 4.01565 43.194 4.01565V4.92861ZM43.293 4.96106C43.3102 4.97828 43.3254 4.999 43.3254 5.06007H44.2384C44.2384 4.78031 44.1429 4.51983 43.9385 4.31551L43.293 4.96106ZM43.3254 5.06007V13.3552H44.2384V5.06007H43.3254ZM43.3254 13.3552C43.3254 13.3894 43.3192 13.4048 43.2924 13.4297L43.9136 14.0987C44.1253 13.9021 44.2384 13.6448 44.2384 13.3552H43.3254ZM43.2802 13.4414C43.2582 13.4634 43.2393 13.4739 43.194 13.4739V14.3868C43.4724 14.3868 43.7262 14.2865 43.9258 14.087L43.2802 13.4414ZM47.0543 13.7642L46.8545 14.1747L46.8588 14.1767L47.0543 13.7642ZM46.3002 13.0996L45.9136 13.3425L45.9169 13.3476L46.3002 13.0996ZM46.7603 10.5689L46.4874 10.2029L46.4844 10.2052L46.7603 10.5689ZM50.5052 10.0065V10.463H50.9617V10.0065H50.5052ZM50.0834 8.68999L49.7769 9.02827L49.7821 9.03288L50.0834 8.68999ZM47.9234 8.39602L47.8339 7.94839L47.8309 7.94901L47.9234 8.39602ZM47.0926 8.62608L47.2033 9.06893L47.2203 9.06468L47.2369 9.05914L47.0926 8.62608ZM46.5941 8.51105L46.9169 8.18827L46.9169 8.18827L46.5941 8.51105ZM46.7858 7.68026L46.9637 8.10066L46.9639 8.10059L46.7858 7.68026ZM50.4797 7.57801L50.246 7.97019L50.2497 7.9723L50.4797 7.57801ZM51.3744 8.51105L50.9641 8.71161L50.9698 8.72252L51.3744 8.51105ZM51.4894 13.7642L51.1788 13.4297L51.1726 13.4354L51.1666 13.4414L51.4894 13.7642ZM50.6714 13.7642L50.9942 13.4414L50.9942 13.4414L50.6714 13.7642ZM50.5052 13.0229H50.9617V11.8997L50.1782 12.7044L50.5052 13.0229ZM49.6233 12.7033L49.8315 13.1097L49.8391 13.1056L49.6233 12.7033ZM50.5052 12.0132L50.8488 12.3137L50.9617 12.1847V12.0132H50.5052ZM50.5052 10.9395H50.9617V10.483H50.5052V10.9395ZM47.4888 12.6906L47.1803 13.0271L47.1873 13.0333L47.4888 12.6906ZM48.1023 13.5378C47.7918 13.5378 47.5095 13.4748 47.2497 13.3517L46.8588 14.1767C47.2466 14.3604 47.663 14.4507 48.1023 14.4507V13.5378ZM47.2539 13.3537C47.0123 13.2361 46.8249 13.0702 46.6834 12.8516L45.9169 13.3476C46.1503 13.7083 46.4657 13.9855 46.8546 14.1747L47.2539 13.3537ZM46.6866 12.8566C46.5489 12.6376 46.4754 12.3825 46.4754 12.0771H45.5625C45.5625 12.5386 45.6764 12.9651 45.9137 13.3425L46.6866 12.8566ZM46.4754 12.0771C46.4754 11.5865 46.6579 11.2195 47.0362 10.9325L46.4844 10.2052C45.8742 10.6681 45.5625 11.3065 45.5625 12.0771H46.4754ZM47.0332 10.9348C47.4249 10.6426 48.0446 10.463 48.9587 10.463V9.54999C47.947 9.54999 47.1011 9.74525 46.4874 10.2029L47.0332 10.9348ZM48.9587 10.463H50.5052V9.54999H48.9587V10.463ZM50.9617 10.0065V9.90422H50.0488V10.0065H50.9617ZM50.9617 9.90422C50.9617 9.27703 50.8054 8.71677 50.3848 8.3471L49.7821 9.03288C49.9238 9.15742 50.0488 9.40665 50.0488 9.90422H50.9617ZM50.39 8.35174C49.9955 7.99427 49.4295 7.86285 48.7925 7.86285V8.77581C49.3315 8.77581 49.626 8.8915 49.7769 9.02823L50.39 8.35174ZM48.7925 7.86285C48.4456 7.86285 48.125 7.89017 47.8339 7.9484L48.0129 8.84363C48.233 8.79961 48.4919 8.77581 48.7925 8.77581V7.86285ZM47.8309 7.94901C47.5622 8.0046 47.2675 8.0866 46.9482 8.19303L47.2369 9.05914C47.5312 8.96106 47.7904 8.88968 48.0159 8.84303L47.8309 7.94901ZM46.9819 8.18323C46.9582 8.18916 46.9414 8.19241 46.9305 8.19408C46.9191 8.19584 46.9186 8.19517 46.9264 8.19517V9.10812C47.0226 9.10812 47.1191 9.08999 47.2033 9.06893L46.9819 8.18323ZM46.9264 8.19517C46.9225 8.19517 46.9212 8.19482 46.9218 8.19494C46.9224 8.19507 46.9238 8.19544 46.9254 8.19609C46.9269 8.19674 46.9272 8.1971 46.9262 8.1964C46.9251 8.19566 46.922 8.19332 46.9169 8.18827L46.2713 8.83383C46.4471 9.00962 46.6726 9.10812 46.9264 9.10812V8.19517ZM46.9169 8.18827C46.9131 8.18449 46.9116 8.18227 46.9112 8.18177C46.9109 8.18133 46.9112 8.1816 46.9114 8.18225C46.9117 8.18288 46.9114 8.18253 46.9111 8.18054C46.9107 8.17847 46.91 8.17381 46.91 8.16595H45.9971C45.9971 8.41949 46.0893 8.6518 46.2713 8.83383L46.9169 8.18827ZM46.91 8.16595C46.91 8.14507 46.9125 8.13409 46.9136 8.13033C46.9145 8.12713 46.9147 8.12782 46.9133 8.12975C46.9092 8.13573 46.9151 8.12121 46.9637 8.10066L46.608 7.25986C46.435 7.33304 46.2747 7.44633 46.1599 7.61421C46.044 7.7835 45.9971 7.97522 45.9971 8.16595H46.91ZM46.9639 8.10059C47.6346 7.8165 48.3113 7.67661 48.997 7.67661V6.76365C48.183 6.76365 47.3856 6.93051 46.6078 7.25993L46.9639 8.10059ZM48.997 7.67661C49.5239 7.67661 49.9325 7.78336 50.246 7.97017L50.7133 7.18585C50.2259 6.89549 49.646 6.76365 48.997 6.76365V7.67661ZM50.2497 7.9723C50.5897 8.17064 50.8207 8.4178 50.9643 8.71154L51.7845 8.31056C51.5531 7.83742 51.1877 7.46254 50.7097 7.18371L50.2497 7.9723ZM50.9698 8.72252C51.1301 9.02905 51.2119 9.36502 51.2119 9.73806H52.1248C52.1248 9.22493 52.0106 8.74289 51.7789 8.29958L50.9698 8.72252ZM51.2119 9.73806V13.3552H52.1248V9.73806H51.2119ZM51.2119 13.3552C51.2119 13.3894 51.2057 13.4048 51.1788 13.4297L51.8 14.0987C52.0117 13.9021 52.1248 13.6448 52.1248 13.3552H51.2119ZM51.1666 13.4414C51.1446 13.4634 51.1258 13.4739 51.0804 13.4739V14.3868C51.3588 14.3868 51.6127 14.2865 51.8122 14.087L51.1666 13.4414ZM51.0804 13.4739C51.035 13.4739 51.0162 13.4634 50.9942 13.4414L50.3486 14.087C50.5481 14.2865 50.802 14.3868 51.0804 14.3868V13.4739ZM50.9942 13.4414C50.9722 13.4194 50.9617 13.4006 50.9617 13.3552H50.0488C50.0488 13.6336 50.1491 13.8875 50.3486 14.087L50.9942 13.4414ZM50.9617 13.3552V13.0229H50.0488V13.3552H50.9617ZM50.1782 12.7044C49.6404 13.2567 48.9608 13.5378 48.1023 13.5378V14.4507C49.1867 14.4507 50.1089 14.0842 50.8323 13.3413L50.1782 12.7044ZM48.5369 13.4282C48.9876 13.4282 49.4208 13.32 49.8314 13.1096L49.4152 12.2971C49.1271 12.4446 48.836 12.5153 48.5369 12.5153V13.4282ZM49.8391 13.1056C50.2323 12.8946 50.5708 12.6314 50.8488 12.3137L50.1617 11.7126C49.9625 11.9402 49.7131 12.1371 49.4075 12.3011L49.8391 13.1056ZM50.9617 12.0132V10.9395H50.0488V12.0132H50.9617ZM50.5052 10.483H49.1121V11.396H50.5052V10.483ZM49.1121 10.483C48.4438 10.483 47.8726 10.5679 47.453 10.7875C47.2364 10.9008 47.0493 11.0557 46.9177 11.2622C46.785 11.4706 46.7256 11.7052 46.7256 11.9492H47.6385C47.6385 11.8567 47.6596 11.7968 47.6877 11.7528C47.7169 11.7068 47.771 11.6514 47.8762 11.5964C48.0999 11.4794 48.4937 11.396 49.1121 11.396V10.483ZM46.7256 11.9492C46.7256 12.3689 46.871 12.7435 47.1804 13.0271L47.7973 12.3541C47.6976 12.2627 47.6385 12.1431 47.6385 11.9492H46.7256ZM47.1873 13.0333C47.5254 13.3309 48.0127 13.4282 48.5369 13.4282V12.5153C48.0897 12.5153 47.8782 12.4252 47.7904 12.3479L47.1873 13.0333ZM54.423 13.7642L54.7458 13.4414L54.7458 13.4414L54.423 13.7642ZM54.423 7.46297L54.7458 7.78575L54.7518 7.77978L54.7575 7.77359L54.423 7.46297ZM55.241 7.46297L54.9065 7.77359L54.918 7.78597L54.9304 7.79748L55.241 7.46297ZM55.42 8.39602H54.9635V9.58093L55.7585 8.70227L55.42 8.39602ZM56.4681 7.53966L56.6936 7.93655L56.4681 7.53966ZM59.0116 7.55244L58.7628 7.9352L58.7671 7.93794L59.0116 7.55244ZM59.804 8.45992L59.3903 8.65299L59.3939 8.66041L59.804 8.45992ZM59.9062 13.7642L59.5956 13.4297L59.5894 13.4354L59.5835 13.4414L59.9062 13.7642ZM59.0882 13.7642L58.7655 14.087L58.7655 14.087L59.0882 13.7642ZM56.3658 8.62608L56.117 8.24332L56.1126 8.24627L56.3658 8.62608ZM55.42 9.52078L55.0627 9.23661L54.9635 9.36137V9.52078H55.42ZM55.241 13.7642L54.9304 13.4297L54.9242 13.4354L54.9183 13.4414L55.241 13.7642ZM54.832 13.4739C54.7867 13.4739 54.7678 13.4634 54.7458 13.4414L54.1003 14.087C54.2998 14.2865 54.5536 14.3868 54.832 14.3868V13.4739ZM54.7458 13.4414C54.7238 13.4194 54.7133 13.4006 54.7133 13.3552H53.8004C53.8004 13.6336 53.9007 13.8875 54.1003 14.087L54.7458 13.4414ZM54.7133 13.3552V7.87198H53.8004V13.3552H54.7133ZM54.7133 7.87198C54.7133 7.82662 54.7238 7.80777 54.7458 7.78575L54.1003 7.1402C53.9007 7.33972 53.8004 7.59354 53.8004 7.87198H54.7133ZM54.7575 7.77359C54.7825 7.74672 54.7979 7.74051 54.832 7.74051V6.82756C54.5424 6.82756 54.2851 6.94064 54.0885 7.15236L54.7575 7.77359ZM54.832 7.74051C54.8662 7.74051 54.8816 7.74672 54.9065 7.77359L55.5755 7.15236C55.3789 6.94064 55.1217 6.82756 54.832 6.82756V7.74051ZM54.9304 7.79748C54.9573 7.82242 54.9635 7.83781 54.9635 7.87198H55.8765C55.8765 7.58235 55.7634 7.32507 55.5517 7.12847L54.9304 7.79748ZM54.9635 7.87198V8.39602H55.8765V7.87198H54.9635ZM55.7585 8.70227C56.0535 8.37618 56.3656 8.1229 56.6936 7.93655L56.2425 7.14278C55.8207 7.38248 55.434 7.7001 55.0815 8.08976L55.7585 8.70227ZM56.6936 7.93655C56.988 7.76927 57.3504 7.67661 57.7973 7.67661V6.76365C57.2217 6.76365 56.698 6.88401 56.2425 7.14278L56.6936 7.93655ZM57.7973 7.67661C58.1915 7.67661 58.5068 7.76878 58.7628 7.93518L59.2603 7.16971C58.8346 6.89302 58.3404 6.76365 57.7973 6.76365V7.67661ZM58.7671 7.93794C59.0411 8.11169 59.2474 8.3466 59.3903 8.65296L60.2177 8.26689C60.0027 7.80636 59.6807 7.43629 59.256 7.16694L58.7671 7.93794ZM59.3939 8.66041C59.5485 8.97664 59.6287 9.32911 59.6287 9.72528H60.5417C60.5417 9.20119 60.4344 8.71009 60.2141 8.25943L59.3939 8.66041ZM59.6287 9.72528V13.3552H60.5417V9.72528H59.6287ZM59.6287 13.3552C59.6287 13.3894 59.6225 13.4048 59.5956 13.4297L60.2169 14.0987C60.4286 13.9021 60.5417 13.6448 60.5417 13.3552H59.6287ZM59.5835 13.4414C59.5615 13.4634 59.5426 13.4739 59.4972 13.4739V14.3868C59.7757 14.3868 60.0295 14.2865 60.229 14.087L59.5835 13.4414ZM59.4972 13.4739C59.4519 13.4739 59.433 13.4634 59.411 13.4414L58.7655 14.087C58.965 14.2865 59.2188 14.3868 59.4972 14.3868V13.4739ZM59.411 13.4414C59.389 13.4194 59.3786 13.4006 59.3786 13.3552H58.4656C58.4656 13.6336 58.5659 13.8875 58.7655 14.087L59.411 13.4414ZM59.3786 13.3552V9.8531H58.4656V13.3552H59.3786ZM59.3786 9.8531C59.3786 9.27396 59.249 8.75437 58.9096 8.37792C58.5621 7.99249 58.068 7.83729 57.5161 7.83729V8.75024C57.9015 8.75024 58.1104 8.85493 58.2316 8.98927C58.3608 9.1326 58.4656 9.39268 58.4656 9.8531H59.3786ZM57.5161 7.83729C57.0062 7.83729 56.5356 7.9713 56.117 8.24335L56.6146 9.00881C56.8777 8.83778 57.1739 8.75024 57.5161 8.75024V7.83729ZM56.1126 8.24627C55.7339 8.49874 55.3848 8.83176 55.0627 9.23661L55.7772 9.80495C56.0516 9.45995 56.3331 9.19652 56.619 9.00589L56.1126 8.24627ZM54.9635 9.52078V13.3552H55.8765V9.52078H54.9635ZM54.9635 13.3552C54.9635 13.3894 54.9573 13.4048 54.9304 13.4297L55.5517 14.0987C55.7634 13.9021 55.8765 13.6448 55.8765 13.3552H54.9635ZM54.9183 13.4414C54.8962 13.4634 54.8774 13.4739 54.832 13.4739V14.3868C55.1105 14.3868 55.3643 14.2865 55.5638 14.087L54.9183 13.4414ZM63.8733 13.598L63.6437 13.9927L63.6522 13.9974L63.8733 13.598ZM62.7229 12.4222L62.3241 12.6444L62.3287 12.6522L62.7229 12.4222ZM62.7229 8.80502L62.327 8.57784L62.3258 8.57997L62.7229 8.80502ZM63.8733 7.62913L64.0974 8.0268L64.0998 8.02547L63.8733 7.62913ZM67.5671 8.19151L67.2379 8.50773L68.0236 9.32571V8.19151H67.5671ZM67.7333 4.63829L67.4226 4.30378L67.4165 4.30953L67.4105 4.31551L67.7333 4.63829ZM68.564 4.65107L68.2295 4.96168L68.2353 4.96787L68.2413 4.97385L68.564 4.65107ZM68.564 13.7642L68.8868 14.087L68.564 13.7642ZM67.7333 13.7642L67.4105 14.087L67.4165 14.093L67.4226 14.0987L67.7333 13.7642ZM67.5671 13.0229H68.0236V11.8887L67.2379 12.7067L67.5671 13.0229ZM66.6468 12.6522L66.851 13.0605L66.8549 13.0585L66.6468 12.6522ZM67.5671 11.9492L67.9044 12.2568L68.0236 12.1261V11.9492H67.5671ZM67.5671 9.26515H68.0236V9.08829L67.9044 8.9576L67.5671 9.26515ZM66.6468 8.57496L66.4346 8.9793L66.4467 8.98522L66.6468 8.57496ZM64.0267 8.90727L64.3564 9.22296L64.3564 9.22296L64.0267 8.90727ZM65.3815 13.5378C64.9331 13.5378 64.5061 13.4266 64.0944 13.1987L63.6522 13.9974C64.1948 14.2978 64.7733 14.4507 65.3815 14.4507V13.5378ZM64.1028 13.2035C63.7085 12.9741 63.3795 12.6417 63.1172 12.1922L62.3287 12.6522C62.6629 13.2252 63.1007 13.6767 63.6437 13.9926L64.1028 13.2035ZM63.1217 12.1999C62.8755 11.7583 62.7449 11.2321 62.7449 10.6072H61.8319C61.8319 11.3626 61.991 12.0465 62.3242 12.6444L63.1217 12.1999ZM62.7449 10.6072C62.7449 9.98204 62.8756 9.46158 63.1201 9.03007L62.3258 8.57997C61.9909 9.17098 61.8319 9.85197 61.8319 10.6072H62.7449ZM63.1189 9.0322C63.381 8.57534 63.7083 8.24614 64.0974 8.0268L63.6491 7.23147C63.101 7.54042 62.6614 7.99515 62.327 8.57785L63.1189 9.0322ZM64.0998 8.02547C64.5108 7.79056 64.9359 7.67661 65.3815 7.67661V6.76365C64.7705 6.76365 64.19 6.92237 63.6468 7.2328L64.0998 8.02547ZM65.3815 7.67661C66.0822 7.67661 66.6947 7.94224 67.2379 8.50773L67.8963 7.8753C67.1954 7.14561 66.3508 6.76365 65.3815 6.76365V7.67661ZM68.0236 8.19151V5.06007H67.1106V8.19151H68.0236ZM68.0236 5.06007C68.0236 4.999 68.0388 4.97828 68.056 4.96106L67.4105 4.31551C67.2062 4.51983 67.1106 4.78031 67.1106 5.06007H68.0236ZM68.0439 4.97279C68.0792 4.93994 68.1091 4.92861 68.155 4.92861V4.01565C67.8772 4.01565 67.6259 4.11509 67.4226 4.30378L68.0439 4.97279ZM68.155 4.92861C68.1892 4.92861 68.2046 4.93482 68.2295 4.96168L68.8986 4.34046C68.702 4.12873 68.4447 4.01565 68.155 4.01565V4.92861ZM68.2413 4.97385C68.2633 4.99586 68.2737 5.01471 68.2737 5.06007H69.1867C69.1867 4.78164 69.0864 4.52782 68.8868 4.32829L68.2413 4.97385ZM68.2737 5.06007V13.3552H69.1867V5.06007H68.2737ZM68.2737 13.3552C68.2737 13.4006 68.2633 13.4194 68.2413 13.4414L68.8868 14.087C69.0864 13.8875 69.1867 13.6336 69.1867 13.3552H68.2737ZM68.2413 13.4414C68.2193 13.4634 68.2004 13.4739 68.155 13.4739V14.3868C68.4335 14.3868 68.6873 14.2865 68.8868 14.087L68.2413 13.4414ZM68.155 13.4739C68.1091 13.4739 68.0792 13.4626 68.0439 13.4297L67.4226 14.0987C67.6259 14.2874 67.8772 14.3868 68.155 14.3868V13.4739ZM68.056 13.4414C68.034 13.4194 68.0236 13.4006 68.0236 13.3552H67.1106C67.1106 13.6336 67.211 13.8875 67.4105 14.087L68.056 13.4414ZM68.0236 13.3552V13.0229H67.1106V13.3552H68.0236ZM67.2379 12.7067C66.6947 13.2722 66.0822 13.5378 65.3815 13.5378V14.4507C66.3508 14.4507 67.1954 14.0688 67.8963 13.3391L67.2379 12.7067ZM65.5476 13.3643C66.0084 13.3643 66.4449 13.2635 66.851 13.0605L66.4427 12.2439C66.1671 12.3817 65.8708 12.4514 65.5476 12.4514V13.3643ZM66.8549 13.0585C67.2529 12.8547 67.6034 12.5869 67.9044 12.2568L67.2298 11.6417C67.0025 11.891 66.7395 12.0919 66.4387 12.2459L66.8549 13.0585ZM68.0236 11.9492V9.26515H67.1106V11.9492H68.0236ZM67.9044 8.9576C67.6018 8.62567 67.2486 8.3606 66.847 8.16469L66.4467 8.98522C66.7438 9.13015 67.0041 9.32521 67.2298 9.57271L67.9044 8.9576ZM66.859 8.17079C66.4515 7.95685 66.0121 7.85007 65.5476 7.85007V8.76303C65.8671 8.76303 66.1605 8.83519 66.4347 8.97912L66.859 8.17079ZM65.5476 7.85007C64.8113 7.85007 64.1786 8.08849 63.6969 8.59159L64.3564 9.22296C64.6416 8.92509 65.0229 8.76303 65.5476 8.76303V7.85007ZM63.6969 8.59159C63.2087 9.10153 62.995 9.79572 62.995 10.6072H63.908C63.908 9.95308 64.0777 9.51398 64.3564 9.22296L63.6969 8.59159ZM62.995 10.6072C62.995 11.4187 63.2087 12.1129 63.6969 12.6228L64.3564 11.9914C64.0777 11.7004 63.908 11.2613 63.908 10.6072H62.995ZM63.6969 12.6228C64.1786 13.1259 64.8113 13.3643 65.5476 13.3643V12.4514C65.0229 12.4514 64.6416 12.2893 64.3564 11.9914L63.6969 12.6228ZM71.4764 5.82696L71.1536 6.14973L71.1536 6.14974L71.4764 5.82696ZM72.4734 5.82696L72.7961 6.14974L72.7961 6.14973L72.4734 5.82696ZM71.5531 13.7642L71.8759 13.4414L71.8759 13.4414L71.5531 13.7642ZM71.5531 7.46297L71.8759 7.78575L71.8818 7.77978L71.8876 7.77359L71.5531 7.46297ZM72.3839 7.45019L72.7067 7.12741L72.3839 7.45019ZM72.3711 13.7642L72.0605 13.4297L72.0543 13.4354L72.0483 13.4414L72.3711 13.7642ZM71.9365 5.5622C71.88 5.5622 71.8424 5.54736 71.7992 5.50418L71.1536 6.14974C71.3661 6.36218 71.6352 6.47516 71.9365 6.47516V5.5622ZM71.7992 5.50418C71.756 5.46099 71.7412 5.42332 71.7412 5.36683H70.8282C70.8282 5.66821 70.9412 5.93729 71.1536 6.14973L71.7992 5.50418ZM71.7412 5.36683V5.3157H70.8282V5.36683H71.7412ZM71.7412 5.3157C71.7412 5.2592 71.756 5.22153 71.7992 5.17835L71.1536 4.53279C70.9412 4.74523 70.8282 5.01432 70.8282 5.3157H71.7412ZM71.7992 5.17835C71.8424 5.13516 71.88 5.12033 71.9365 5.12033V4.20737C71.6352 4.20737 71.3661 4.32035 71.1536 4.53279L71.7992 5.17835ZM71.9365 5.12033H72.0132V4.20737H71.9365V5.12033ZM72.0132 5.12033C72.0697 5.12033 72.1074 5.13516 72.1506 5.17835L72.7961 4.53279C72.5837 4.32035 72.3146 4.20737 72.0132 4.20737V5.12033ZM72.1506 5.17835C72.1938 5.22153 72.2086 5.2592 72.2086 5.3157H73.1216C73.1216 5.01432 73.0086 4.74523 72.7961 4.53279L72.1506 5.17835ZM72.2086 5.3157V5.36683H73.1216V5.3157H72.2086ZM72.2086 5.36683C72.2086 5.42332 72.1938 5.46099 72.1506 5.50418L72.7961 6.14973C73.0086 5.93729 73.1216 5.66821 73.1216 5.36683H72.2086ZM72.1506 5.50418C72.1074 5.54736 72.0697 5.5622 72.0132 5.5622V6.47516C72.3146 6.47516 72.5837 6.36218 72.7961 6.14974L72.1506 5.50418ZM72.0132 5.5622H71.9365V6.47516H72.0132V5.5622ZM71.9621 13.4739C71.9167 13.4739 71.8979 13.4634 71.8759 13.4414L71.2303 14.087C71.4298 14.2865 71.6837 14.3868 71.9621 14.3868V13.4739ZM71.8759 13.4414C71.8539 13.4194 71.8434 13.4006 71.8434 13.3552H70.9305C70.9305 13.6336 71.0308 13.8875 71.2303 14.087L71.8759 13.4414ZM71.8434 13.3552V7.87198H70.9305V13.3552H71.8434ZM71.8434 7.87198C71.8434 7.82662 71.8539 7.80777 71.8759 7.78575L71.2303 7.1402C71.0308 7.33972 70.9305 7.59354 70.9305 7.87198H71.8434ZM71.8876 7.77359C71.9125 7.74672 71.9279 7.74051 71.9621 7.74051V6.82756C71.6725 6.82756 71.4152 6.94064 71.2186 7.15236L71.8876 7.77359ZM71.9621 7.74051C72.0232 7.74051 72.0439 7.75575 72.0611 7.77297L72.7067 7.12741C72.5023 6.92309 72.2419 6.82756 71.9621 6.82756V7.74051ZM72.0611 7.77297C72.0783 7.79019 72.0936 7.8109 72.0936 7.87198H73.0065C73.0065 7.59222 72.911 7.33174 72.7067 7.12741L72.0611 7.77297ZM72.0936 7.87198V13.3552H73.0065V7.87198H72.0936ZM72.0936 13.3552C72.0936 13.3894 72.0874 13.4048 72.0605 13.4297L72.6817 14.0987C72.8934 13.9021 73.0065 13.6448 73.0065 13.3552H72.0936ZM72.0483 13.4414C72.0263 13.4634 72.0075 13.4739 71.9621 13.4739V14.3868C72.2405 14.3868 72.4944 14.2865 72.6939 14.087L72.0483 13.4414ZM75.375 13.7642L75.6978 13.4414L75.6978 13.4414L75.375 13.7642ZM75.375 7.46297L75.6978 7.78575L75.7038 7.77978L75.7095 7.77359L75.375 7.46297ZM76.193 7.46297L75.8585 7.77359L75.87 7.78597L75.8824 7.79748L76.193 7.46297ZM76.372 8.39602H75.9155V9.58093L76.7105 8.70227L76.372 8.39602ZM77.4201 7.53966L77.6456 7.93655L77.4201 7.53966ZM79.9636 7.55244L79.7148 7.9352L79.7191 7.93794L79.9636 7.55244ZM80.756 8.45992L80.3423 8.65299L80.3459 8.66041L80.756 8.45992ZM80.8583 13.7642L80.5476 13.4297L80.5414 13.4354L80.5355 13.4414L80.8583 13.7642ZM80.0402 13.7642L79.7175 14.087L79.7175 14.087L80.0402 13.7642ZM77.3178 8.62608L77.069 8.24332L77.0646 8.24627L77.3178 8.62608ZM76.372 9.52078L76.0147 9.23661L75.9155 9.36137V9.52078H76.372ZM76.193 13.7642L75.8824 13.4297L75.8762 13.4354L75.8703 13.4414L76.193 13.7642ZM75.784 13.4739C75.7387 13.4739 75.7198 13.4634 75.6978 13.4414L75.0523 14.087C75.2518 14.2865 75.5056 14.3868 75.784 14.3868V13.4739ZM75.6978 13.4414C75.6758 13.4194 75.6654 13.4006 75.6654 13.3552H74.7524C74.7524 13.6336 74.8527 13.8875 75.0523 14.087L75.6978 13.4414ZM75.6654 13.3552V7.87198H74.7524V13.3552H75.6654ZM75.6654 7.87198C75.6654 7.82662 75.6758 7.80777 75.6978 7.78575L75.0523 7.1402C74.8527 7.33972 74.7524 7.59354 74.7524 7.87198H75.6654ZM75.7095 7.77359C75.7345 7.74672 75.7499 7.74051 75.784 7.74051V6.82756C75.4944 6.82756 75.2371 6.94064 75.0405 7.15236L75.7095 7.77359ZM75.784 7.74051C75.8182 7.74051 75.8336 7.74672 75.8585 7.77359L76.5275 7.15236C76.3309 6.94064 76.0737 6.82756 75.784 6.82756V7.74051ZM75.8824 7.79748C75.9093 7.82242 75.9155 7.83781 75.9155 7.87198H76.8285C76.8285 7.58235 76.7154 7.32507 76.5037 7.12847L75.8824 7.79748ZM75.9155 7.87198V8.39602H76.8285V7.87198H75.9155ZM76.7105 8.70227C77.0055 8.37618 77.3176 8.1229 77.6456 7.93655L77.1946 7.14278C76.7727 7.38248 76.386 7.7001 76.0335 8.08976L76.7105 8.70227ZM77.6456 7.93655C77.94 7.76927 78.3024 7.67661 78.7493 7.67661V6.76365C78.1737 6.76365 77.65 6.88401 77.1946 7.14278L77.6456 7.93655ZM78.7493 7.67661C79.1435 7.67661 79.4588 7.76878 79.7148 7.93518L80.2123 7.16971C79.7866 6.89302 79.2925 6.76365 78.7493 6.76365V7.67661ZM79.7191 7.93794C79.9931 8.11169 80.1994 8.3466 80.3423 8.65296L81.1697 8.26689C80.9547 7.80636 80.6328 7.43629 80.208 7.16694L79.7191 7.93794ZM80.3459 8.66041C80.5005 8.97664 80.5807 9.32911 80.5807 9.72528H81.4937C81.4937 9.20119 81.3864 8.71009 81.1661 8.25943L80.3459 8.66041ZM80.5807 9.72528V13.3552H81.4937V9.72528H80.5807ZM80.5807 13.3552C80.5807 13.3894 80.5745 13.4048 80.5476 13.4297L81.1689 14.0987C81.3806 13.9021 81.4937 13.6448 81.4937 13.3552H80.5807ZM80.5355 13.4414C80.5135 13.4634 80.4946 13.4739 80.4492 13.4739V14.3868C80.7277 14.3868 80.9815 14.2865 81.181 14.087L80.5355 13.4414ZM80.4492 13.4739C80.4039 13.4739 80.385 13.4634 80.363 13.4414L79.7175 14.087C79.917 14.2865 80.1708 14.3868 80.4492 14.3868V13.4739ZM80.363 13.4414C80.341 13.4194 80.3306 13.4006 80.3306 13.3552H79.4176C79.4176 13.6336 79.5179 13.8875 79.7175 14.087L80.363 13.4414ZM80.3306 13.3552V9.8531H79.4176V13.3552H80.3306ZM80.3306 9.8531C80.3306 9.27396 80.201 8.75437 79.8616 8.37792C79.5141 7.99249 79.0201 7.83729 78.4681 7.83729V8.75024C78.8535 8.75024 79.0624 8.85493 79.1836 8.98927C79.3128 9.1326 79.4176 9.39268 79.4176 9.8531H80.3306ZM78.4681 7.83729C77.9582 7.83729 77.4876 7.9713 77.069 8.24335L77.5666 9.00881C77.8297 8.83778 78.1259 8.75024 78.4681 8.75024V7.83729ZM77.0646 8.24627C76.6859 8.49874 76.3368 8.83176 76.0147 9.23661L76.7292 9.80495C77.0036 9.45995 77.2851 9.19652 77.571 9.00589L77.0646 8.24627ZM75.9155 9.52078V13.3552H76.8285V9.52078H75.9155ZM75.9155 13.3552C75.9155 13.3894 75.9093 13.4048 75.8824 13.4297L76.5037 14.0987C76.7154 13.9021 76.8285 13.6448 76.8285 13.3552H75.9155ZM75.8703 13.4414C75.8482 13.4634 75.8294 13.4739 75.784 13.4739V14.3868C76.0625 14.3868 76.3163 14.2865 76.5158 14.087L75.8703 13.4414ZM83.9434 16.2694L83.7053 16.659L83.7147 16.6644L83.9434 16.2694ZM83.8539 15.4513L83.5311 15.1286L83.5177 15.142L83.5054 15.1565L83.8539 15.4513ZM84.4546 15.3491L84.6588 14.9408L84.6418 14.9323L84.6242 14.9253L84.4546 15.3491ZM88.5191 12.8951H88.9756V11.7378L88.1855 12.5834L88.5191 12.8951ZM84.8636 13.4958L84.645 13.8966L84.6537 13.9011L84.8636 13.4958ZM83.7005 12.371L83.3108 12.6088L83.3127 12.6118L83.7005 12.371ZM83.7005 8.72833L84.0884 8.96907L84.0902 8.9661L83.7005 8.72833ZM84.8636 7.60357L85.0765 8.00737L85.0792 8.00595L84.8636 7.60357ZM88.5191 8.19151L88.1855 8.50313L88.9756 9.34881V8.19151H88.5191ZM88.6853 7.46297L89.008 7.78575L89.014 7.77978L89.0198 7.77359L88.6853 7.46297ZM89.5033 7.46297L89.1688 7.77359L89.1803 7.78597L89.1927 7.79748L89.5033 7.46297ZM87.6372 12.55L87.4155 12.1509L87.4155 12.1509L87.6372 12.55ZM88.5191 11.8598L88.8467 12.1777L88.9756 12.0449V11.8598H88.5191ZM88.5191 9.22681H88.9756V9.04171L88.8467 8.90888L88.5191 9.22681ZM87.6372 8.53661L87.8589 8.13758L87.8589 8.13758L87.6372 8.53661ZM85.0042 8.86893L85.3199 9.19865L85.3201 9.1985L85.0042 8.86893ZM85.0042 12.2304L84.6849 12.5567L84.692 12.5635L85.0042 12.2304ZM86.6786 16.4775C86.2241 16.4775 85.7634 16.4188 85.2956 16.2999L85.0707 17.1847C85.6084 17.3214 86.1446 17.3905 86.6786 17.3905V16.4775ZM85.2956 16.2999C84.8192 16.1787 84.4485 16.0343 84.1721 15.8743L83.7147 16.6644C84.0858 16.8793 84.5417 17.0502 85.0707 17.1847L85.2956 16.2999ZM84.1814 15.8799C84.1748 15.8758 84.1732 15.8738 84.1741 15.8747C84.1751 15.8758 84.1762 15.8774 84.1768 15.8785C84.1781 15.8811 84.1698 15.8674 84.1698 15.822H83.2568C83.2568 16.1595 83.3955 16.4695 83.7053 16.6589L84.1814 15.8799ZM84.1698 15.822C84.1698 15.8009 84.1735 15.7803 84.2024 15.7462L83.5054 15.1565C83.3468 15.3439 83.2568 15.5704 83.2568 15.822H84.1698ZM84.1767 15.7741C84.1889 15.7619 84.1958 15.7589 84.1978 15.7581C84.1998 15.7573 84.207 15.7545 84.2246 15.7545V14.8415C83.9589 14.8415 83.7191 14.9405 83.5311 15.1286L84.1767 15.7741ZM84.2246 15.7545C84.2183 15.7545 84.2362 15.7534 84.2851 15.7729L84.6242 14.9253C84.5026 14.8766 84.3671 14.8415 84.2246 14.8415V15.7545ZM84.2505 15.7574C84.9645 16.1144 85.7378 16.2913 86.5635 16.2913V15.3783C85.8726 15.3783 85.2399 15.2314 84.6588 14.9408L84.2505 15.7574ZM86.5635 16.2913C87.2934 16.2913 87.9227 16.0955 88.363 15.6264C88.7983 15.1627 88.9756 14.5093 88.9756 13.7514H88.0626C88.0626 14.3825 87.914 14.7708 87.6974 15.0015C87.4859 15.2269 87.1374 15.3783 86.5635 15.3783V16.2913ZM88.9756 13.7514V12.8951H88.0626V13.7514H88.9756ZM88.1855 12.5834C87.663 13.1428 87.0535 13.41 86.3335 13.41V14.3229C87.3176 14.3229 88.1653 13.9425 88.8527 13.2067L88.1855 12.5834ZM86.3335 13.41C85.9088 13.41 85.4904 13.3063 85.0735 13.0904L84.6537 13.9011C85.1912 14.1795 85.7527 14.3229 86.3335 14.3229V13.41ZM85.0822 13.0951C84.689 12.8806 84.3573 12.5636 84.0884 12.1303L83.3127 12.6118C83.6572 13.1669 84.101 13.5998 84.645 13.8965L85.0822 13.0951ZM84.0902 12.1333C83.8357 11.7162 83.6969 11.1933 83.6969 10.5433H82.7839C82.7839 11.3248 82.9518 12.0204 83.3108 12.6088L84.0902 12.1333ZM83.6969 10.5433C83.6969 9.893 83.8358 9.37598 84.0884 8.96906L83.3127 8.4876C82.9517 9.06912 82.7839 9.76207 82.7839 10.5433H83.6969ZM84.0902 8.9661C84.359 8.52557 84.6886 8.2119 85.0765 8.00736L84.6507 7.19978C84.1013 7.48946 83.6556 7.92562 83.3108 8.49057L84.0902 8.9661ZM85.0792 8.00595C85.4953 7.78304 85.9117 7.67661 86.3335 7.67661V6.76365C85.7498 6.76365 85.1863 6.91285 84.6481 7.20119L85.0792 8.00595ZM86.3335 7.67661C87.0535 7.67661 87.663 7.94377 88.1855 8.50313L88.8527 7.87989C88.1653 7.14407 87.3176 6.76365 86.3335 6.76365V7.67661ZM88.9756 8.19151V7.87198H88.0626V8.19151H88.9756ZM88.9756 7.87198C88.9756 7.82662 88.986 7.80777 89.008 7.78575L88.3625 7.1402C88.163 7.33972 88.0626 7.59354 88.0626 7.87198H88.9756ZM89.0198 7.77359C89.0447 7.74672 89.0601 7.74051 89.0943 7.74051V6.82756C88.8046 6.82756 88.5474 6.94064 88.3508 7.15236L89.0198 7.77359ZM89.0943 7.74051C89.1284 7.74051 89.1438 7.74672 89.1688 7.77359L89.8378 7.15236C89.6412 6.94064 89.3839 6.82756 89.0943 6.82756V7.74051ZM89.1927 7.79748C89.2195 7.82242 89.2257 7.83781 89.2257 7.87198H90.1387C90.1387 7.58235 90.0256 7.32507 89.8139 7.12847L89.1927 7.79748ZM89.2257 7.87198V13.5853H90.1387V7.87198H89.2257ZM89.2257 13.5853C89.2257 14.5892 88.983 15.2916 88.5628 15.76L89.2423 16.3697C89.8616 15.6793 90.1387 14.7286 90.1387 13.5853H89.2257ZM88.5628 15.76C88.1495 16.2208 87.5449 16.4775 86.6786 16.4775V17.3905C87.738 17.3905 88.6161 17.0678 89.2423 16.3697L88.5628 15.76ZM86.5763 13.2621C87.0433 13.2621 87.4752 13.1621 87.8589 12.949L87.4155 12.1509C87.1856 12.2786 86.9103 12.3491 86.5763 12.3491V13.2621ZM87.8589 12.949C88.2101 12.7539 88.5389 12.4948 88.8467 12.1777L88.1915 11.5418C87.9369 11.8042 87.6778 12.0052 87.4155 12.1509L87.8589 12.949ZM88.9756 11.8598V9.22681H88.0626V11.8598H88.9756ZM88.8467 8.90888C88.5389 8.59182 88.2101 8.33268 87.8589 8.13758L87.4155 8.93565C87.6778 9.08138 87.9369 9.28237 88.1915 9.54473L88.8467 8.90888ZM87.8589 8.13758C87.4752 7.92444 87.0433 7.82451 86.5763 7.82451V8.73746C86.9103 8.73746 87.1856 8.80795 87.4155 8.93565L87.8589 8.13758ZM86.5763 7.82451C85.8359 7.82451 85.1935 8.05531 84.6884 8.53936L85.3201 9.1985C85.633 8.89862 86.0386 8.73746 86.5763 8.73746V7.82451ZM84.6885 8.53921C84.1718 9.03392 83.947 9.72777 83.947 10.5433H84.86C84.86 9.89321 85.0356 9.47082 85.3199 9.19865L84.6885 8.53921ZM83.947 10.5433C83.947 11.3594 84.1721 12.0547 84.6849 12.5567L85.3235 11.9042C85.0354 11.6222 84.86 11.1927 84.86 10.5433H83.947ZM84.692 12.5635C85.1976 13.0374 85.8388 13.2621 86.5763 13.2621V12.3491C86.0358 12.3491 85.6289 12.1904 85.3164 11.8974L84.692 12.5635Z" fill="white"/>
</svg>
